# xmcd
#
# Track frame offsets: 
#        150
#        13792
#        28577
#        45862
#        61022
#        72961
#        86200
#        97767
#        111777
#        127902
#        144164
#        157615
#        172575
#        187703
#        200735
#
# Disc length: 2863 seconds
#
# Revision: 0
# Processed by: cddbd v1.5.2PL0 Copyright (c) Steve Scherf et al.
# Submitted via: ExactAudioCopyFreeDBPlugin 1.0
#
DISCID=a70b2d0f
DTITLE=Various Artist - Country Love
DYEAR=2010
DGENRE=Country
TTITLE0=Johnny Cash and June Carte Cash - If i were a Carpenter
TTITLE1=Dolly Parton and Willie Nelson - Everything's beautiful (in it's
TTITLE1=own Way)
TTITLE2=Ricky Skaggs - Love can't ever get better than this
TTITLE3=Rodney Crowell and Rosanne Cash - It's sucha small World
TTITLE4=Mickey Gilley - Roll you like a Wheel
TTITLE5=Tammy Wynette - Stand by your man
TTITLE6=Lynn Anderson - Rose Garden
TTITLE7=Dolly Parton - Why'd you come her lookin' like this
TTITLE8=Shelby Lynne - Thinking about you again
TTITLE9=Patty Loveless - Blame it on your heart
TTITLE10=The Kinleys - Please
TTITLE11=Tammy Cochran - Love won't let me
TTITLE12=Rosanne Cash - I don't know why you don't want me
TTITLE13=Ronnie McDowell - You're gonna ruin my bad reputation
TTITLE14=Doug Stone - Made for lovin' you
EXTD=
EXTT0=
EXTT1=
EXTT2=
EXTT3=
EXTT4=
EXTT5=
EXTT6=
EXTT7=
EXTT8=
EXTT9=
EXTT10=
EXTT11=
EXTT12=
EXTT13=
EXTT14=
PLAYORDER=
